<svg xmlns="http://www.w3.org/2000/svg" viewBox="0 0 159.5 184"><defs><style>.a{fill:#36c7d6;opacity:0.15;}.b{fill:#fff;}.b,.c,.d,.e,.f{stroke:#36c7d6;stroke-width:2px;}.b,.c,.d,.f{stroke-miterlimit:10;}.c,.e{fill:#9ce3eb;}.d,.f{fill:none;}.e{stroke-linejoin:round;}.f{stroke-linecap:round;}</style></defs><title>404-icon-4</title><ellipse class="a" cx="63.93" cy="179" rx="49.5" ry="5"/><rect class="b" x="1" y="1" width="80" height="70" rx="4" ry="4"/><path class="b" d="M1125.95,184.71a1.66,1.66,0,0,0-1.36-.71h-33.16a1.66,1.66,0,0,0-1.36.71c-4.27,6.11-7.05,13.2-7.05,20.29s2.79,14.18,7.05,20.29a1.66,1.66,0,0,0,1.36.71h33.16a1.66,1.66,0,0,0,1.36-.71c4.27-6.12,7.05-13.2,7.05-20.29S1130.21,190.82,1125.95,184.71Z" transform="translate(-1067 -169)"/><rect class="c" x="29.06" y="26" width="4" height="12"/><rect class="c" x="49.06" y="26" width="4" height="12"/><path class="c" d="M41.06,43h0a3,3,0,0,1,3,3v5a0,0,0,0,1,0,0h-6a0,0,0,0,1,0,0V46A3,3,0,0,1,41.06,43Z"/><circle class="d" cx="8" cy="8" r="2"/><circle class="d" cx="74" cy="8" r="2"/><circle class="d" cx="8" cy="64" r="2"/><circle class="d" cx="74" cy="64" r="2"/><path class="c" d="M1128.82,321.3h12a0,0,0,0,1,0,0v6a1,1,0,0,1-1,1h-10a1,1,0,0,1-1-1v-6a0,0,0,0,1,0,0Z" transform="translate(-964.29 728.57) rotate(-45)"/><path class="c" d="M1124.56,294.75l-19.8,19.8a37.59,37.59,0,0,0,8.91,6.39,26,26,0,0,1,8.06,6.33l15.56-15.56a26,26,0,0,1-6.33-8.06A37.59,37.59,0,0,0,1124.56,294.75Z" transform="translate(-1067 -169)"/><rect class="b" x="1096.4" y="293.53" width="4" height="18" transform="translate(-959.2 696.3) rotate(-45)"/><rect class="b" x="1110.54" y="279.38" width="4" height="18" transform="translate(-945.06 702.15) rotate(-45)"/><rect class="c" x="1096.25" y="301.23" width="34" height="4" rx="1" ry="1" transform="translate(-955.35 707) rotate(-45)"/><path class="a" d="M1127.2,297.77a38,38,0,0,0-2.63-3l-19.8,19.8a38,38,0,0,0,3,2.63Z" transform="translate(-1067 -169)"/><rect class="c" x="1117.93" y="318.91" width="26" height="4" rx="1" ry="1" transform="translate(-962.68 724.68) rotate(-45)"/><rect class="a" x="1127.76" y="321.74" width="12" height="4" transform="translate(-963.85 727.51) rotate(-45)"/><polygon class="e" points="76.66 156.15 68.17 164.64 66.76 161.81 73.83 154.74 76.66 156.15"/><polygon class="e" points="78.07 158.98 71 166.05 68.17 164.64 76.66 156.15 78.07 158.98"/><rect class="e" x="1137.6" y="331.08" width="10" height="3" transform="translate(-967.51 736.35) rotate(-45)"/><polygon class="e" points="81.61 163.93 75.95 169.59 73.12 168.17 80.19 161.1 81.61 163.93"/><rect class="e" x="1142.84" y="335.32" width="8" height="3" transform="translate(-969.27 740.59) rotate(-45)"/><polygon class="e" points="85.14 168.88 80.9 173.12 78.07 171.71 83.73 166.05 85.14 168.88"/><path class="f" d="M1150.73,340.71s15.27,13.41,30.61,1.41c11-8.6,15.47-21.84-.67-54.74-20.43-41.67,20.76-61.38,44.84-31.93" transform="translate(-1067 -169)"/><line class="f" x1="27.74" y1="93.18" x2="27.74" y2="119.53"/><line class="f" x1="37.74" y1="80.18" x2="37.74" y2="106.53"/><line class="f" x1="47.74" y1="95.18" x2="47.74" y2="111.53"/></svg>